<svg xmlns="http://www.w3.org/2000/svg" xmlns:xlink="http://www.w3.org/1999/xlink" viewBox="0 0 82.12 36.53"><defs>
  <style>
    .plain{fill:#fff;}
    .tint-low{fill:#faa;}
    .tint-mid{fill:#f55;}
    .tint-full{fill:#f00;}
    .clmask{mask:url(#mask);}
    .clfilter{filter:url(#luminosity-invert-noclip);}
  </style>
  <filter id="luminosity-invert-noclip" x="0" y="-8.37" width="88.08" height="44.9" filterUnits="userSpaceOnUse" color-interpolation-filters="sRGB">
  <feColorMatrix values="-1 0 0 0 1 0 -1 0 0 1 0 0 -1 0 1 0 0 0 1 0" result="invert"/>
  <feFlood flood-color="#fff" result="bg"/>
  <feBlend in="invert" in2="bg"/></filter>
  <mask id="mask" x="0" y="-8.37" width="88.08" height="44.9" maskUnits="userSpaceOnUse">
  <g class="clfilter">
    <rect class="plain" x="52.78" y="-8.37" width="35.3" height="31.34"/>
    <circle class="plain" cx="53.24" cy="7.03" r="4.9"/><circle class="plain" cx="78.14" cy="21.64" r="4.9"/>
  </g>
  </mask>
  </defs>
  <title>Asset 1</title>
  <g id="Layer_2" data-name="Layer 2"><g id="Layer_1-2" data-name="Layer 1"><g class="clmask">
  <path class="plain" d=
    "
    M40.93,23.05
    c-6,6-12.84,13.48-23.17,13.48S0,29,0,18.39A18.42,18.42,0,0,1,18.77,0C28.09,0,35,7.68,41.06,13.6,47.11,7.43,53.91,0,64.36,0S82.12,7.56,82.12,18.39A18.37,18.37,0,0,1,63.35,36.53C53.91,36.53,47,28.84,40.93,23.05ZM36.4,18.39c-5-4.66-10.2-11.46-17.76-11.46A11.23,11.23,0,0,0,7.31,18.39c0,6.42,4.53,11.21,11,11.21C25.69,29.6,31.74,23.17,36.4,18.39Zm38.42,0c0-6.68-4.54-11.46-11.09-11.46-7.43,0-13.47,6.55-18,11.33,5,4.66,10.08,11.34,17.63,11.34A11.22,11.22,0,0,0,74.82,18.39Z"/></g></g><g id="Layer_2-2" data-name="Layer 2">
  <path class="tint-full" d="M76.68,5.45A5.45,5.45,0,1,1,71.23,0,5.44,5.44,0,0,1,76.68,5.45Z"/>
  <path class="tint-low" d="M56.62,7a3.38,3.38,0,1,1-3.38-3.37A3.38,3.38,0,0,1,56.62,7Z"/>
  <path class="tint-mid" d="M64.61,3.93A3.65,3.65,0,1,1,61,.28,3.64,3.64,0,0,1,64.61,3.93Z"/>
  <path class="tint-mid" d="M81.52,13.76a3.66,3.66,0,1,1-3.66-3.66A3.66,3.66,0,0,1,81.52,13.76Z"/>
  <path class="tint-low" d="M81.52,21.64a3.38,3.38,0,1,1-3.38-3.38A3.38,3.38,0,0,1,81.52,21.64Z"/></g></g></svg>
